<?xml version="1.0" encoding="UTF-8"?>
<svg id="Layer_1" xmlns="http://www.w3.org/2000/svg" version="1.1" viewBox="234 183 1738 984">
  <!-- Generator: Adobe Illustrator 30.3.0, SVG Export Plug-In . SVG Version: 2.1.3 Build 182)  -->
  <defs>
    <style>
      .st0 {
        fill: #1f5ea3;
      }

      .st1 {
        fill: #b6dbef;
      }

      .st2 {
        fill: #1b3268;
      }

      .st3 {
        fill: #21355c;
      }

      .st4 {
        fill: #3d70ad;
      }

      .st5 {
        fill: #fefefe;
      }

      .st6 {
        fill: #6aa9ce;
      }

      .st7 {
        fill: #ddeff9;
      }

      .st8 {
        fill: #9dc4e1;
      }

      .st9 {
        fill: #386bae;
      }
    </style>
  </defs>
  <g id="d9JiVM">
    <g>
      <g>
        <g>
          <path class="st3" d="M850.98,1005.75c-19.27,11.95-42.65,16.93-65.38,16.03l-480.35-19c-23.88-.94-41.99-18.54-43.94-41.86-3.94-47.31-3.13-92.92-3.67-141.16l-3.43-305.54c-.23-20.8,1.78-42.99,15.21-59.05l139.22-166.49c18.21-21.78,43.64-36.02,73.84-35.01l499.3,16.6c32.6,1.08,55.76,30.61,56.37,61.71l5.68,287.99,5.93,221.93c.68,25.61-12.69,48.48-34.24,61.84l-164.56,102.01h.02ZM268.22,473.7c-4.91,10.21-5.7,20.69-5.9,31.74l-.21,11.79-.36,4.31,3.82,316.21,2.64,116.52c.46,20.12,14.27,40.17,37.02,41.08l454.68,18.02c28.51,1.13,58.57,2.7,83.2-12.5l170.24-105.1c16.88-10.42,27.98-29.08,27.53-48.66l-3.79-163.54-6.99-352.7c-.55-27.95-22.53-52.46-50.58-53.35l-489.25-15.58c-23.7-.75-50.65,3.84-66.23,22.23l-144.74,170.86c-4.99,5.89-8.05,12.33-11.09,18.66h.01Z"/>
          <path class="st8" d="M261.76,521.54c1.08.17,2.55.16,3.14.62.65.5,1.23,2.09,1.23,3.7l.18,60.21c1.54-.5,2.02-1.9,2.18-2.76.34-1.81,3.39-1.72,3.71-.39.3,1.25-.1,3.9-.65,5.15l-.22,203.82c.01,3.94.55,6.8,2.81,8.13-2.21,15.93-5.72,27.23,5.93,30.88l-9.33,1.75,1.03,99.75,10.14-6.29c-2.15,13.18-3.11,24.81.82,38.04,37.96-18.54,56.3-46.95,75.5-82.58,7.37-4.56,13.6-11.49,22.17-16,8.43.2,21.41,3.96,29.61-1.96,8.89-6.42,12.78-22.92,13.32-33.4.85-16.54,7.08-27.31,13.11-41.56,8.04-19.01,1.01-55.54-.54-84.52l-8.58-160.58c4.33-9.31,5.44-20.08,5.04-31.8l-6.8-203.89c-4.97,4.8-6.98,9.6-11.53,12.11-.89-1.37-1.68-3.23-3.9-4.12-36.12,42.09-70.03,84.82-96.52,132.48-5.84,10.42-13.85,19.28-27.89,18.65-8.26,10.45-8.45,23.95-1.26,35.45-3.43,24.06-.62,46.64,4.34,69.47-5.24-.56-4.22-5.39-5.32-9.29-4.24-15.11-7.97-29.34-6.12-45,1.57-13.22-.72-44.14-9.14-43.9,3.04-6.33,6.1-12.77,11.09-18.66l144.74-170.86c15.58-18.39,42.53-22.98,66.23-22.23l489.25,15.58c28.05.89,50.03,25.41,50.58,53.35l6.99,352.7,3.79,163.54c.45,19.58-10.65,38.24-27.53,48.66l-170.24,105.1c-24.63,15.21-54.7,13.63-83.2,12.5l-454.68-18.02c-22.75-.9-36.56-20.95-37.02-41.08l-2.64-116.52-3.82-316.21v-.02ZM475.85,370.64l1.61,35.3c.13,2.84-1.02,6.42-1.05,10.26l-.83,97.73c-.06,7.62-.33,14,2.81,20.1-4.04,1.19-3.67,5.37-3.71,9.57l-1.43,162.35c-.26,29.93-.9,60.13,14.75,86.35,10.93,18.32,33.15,31.44,53.74,35.24,17.54,3.24,33.26-3.09,50.42-2.83,49.34.74,97.07,8.2,144.93,13.52,40.49,4.5,80.95,8.8,122.92,2.8l-8.13-8.94c7.42-6.64,17.57-9.19,27.23-12.2.98,5.87,1.3,8.49,4.87,12.07,1.84-5.12,3.41-7.09,6.34-8.2l8.24,10.33,59.55.25c2.41.01,4.25.54,6.59-.31,1.77-.64,1.82-2.87,2.37-4.97,1.27,11.31,27.17,8.95,49.02,9.07,2.2-6.64,2.42-13.87,2.04-20.11,6.15-43.8,6.41-88.09,5.71-133.99l-1.98-130.08-2.06-158.28c-.27-20.72-2.72-41.14-5.39-61.72-1.66-12.77-2.01-29.22-15.69-36.81-14.8-8.21-33.64-8.53-50.6-9.3l-57.76-2.62c-46.33-2.1-92.37-2.16-137.19,8.7-61.68,6.16-124.28,9.81-187.34.49l-23.7-2.6-51.84-14.3c-6.84-1.89-14.03,1.64-18.22,5.36-5.05,4.47-6.7,11.45-6.19,19.13l4.23,63.79c.19,2.92,4.43,4.65,5.75,4.85h-.01ZM764.91,858.06l201.16,2.06c17.95.18,35.2,5.34,52.24.11l-200.45-10.1-331.46-12.58c-11.96-.45-19.44-9.22-19.73-20.73l-3.48-136.81-13.68-388.25c-.57.24-1.2.75-1.61,1.23l1.73,239.1,3.8,294.37c.17,13.34-5.12,19.61-13.67,27.5l-117.26,108.22c45.42-30.7,83.25-65.86,125.13-98.4,7.82-6.07,15.91-12.05,26.95-11.81l290.32,6.11v-.02ZM448.21,885.24c-9.29.78-17.39,4.36-26.25,10.89-32.16,23.69-62.81,48.49-93.31,74.13-3.63,3.05-6,9.28-5.24,12.59,1.07,4.66,6.86,7.14,12.75,7.54,52.37,3.55,103.96,3.09,155.52,2.97,54.2-.12,108.1,5.34,162.22,8.56l32.98,1.96c.68.04,1.13-.75,1.18-1.21l-34.25-4.73-4.41-.57c-1.82-.24-3.08-3.24-2.1-4.2,12.84-12.57,54.45-11.8,78.74-10.79l39.48,5.11c5.43.7,8.6-3.68,10.45-7.49.76-1.56,2.09-3.44-.24-5.78l-18.07-18.16,82.41-2.53-6.18,12.96c24.67-12.02,35.91,12.12,54.72-3.97,11.28-9.65,22.2-19.28,31.56-29.97,10.93-12.47,24.65-20.72,41.35-25.27l21.52-8.79c-10.79-25.34-65.19-23.07-99.32-25.21-22.06-1.38-44.14-1.73-66.18.38l-11.61-.05-21.95-1.93-25.78-1.43-194.05-8.24c-41.49-1.42-80.09,3.86-115.95,23.24h0ZM317.09,965.15c-1.51,2.69-6.8,4-6.92,8.6,4.64-.83,7.4-5.5,9.78-7.4.62-.49,1.64-.25,2.1-1.52.52-1.44-.32-2.7-1.09-2.84-2.29-.42-2.59.89-3.87,3.15h0ZM308.22,978c0-1.23-1-2.22-2.22-2.22s-2.22,1-2.22,2.22,1,2.22,2.22,2.22,2.22-1,2.22-2.22Z"/>
          <path class="st1" d="M743.93,383.6c.61-.02,1.65-.13,2.19.07-.37,6.28,6.1,5.45,11.1,6.86l95.07,26.91c50.09,14.18,28.92,84.4,19.96,140.64l2.17,23.76c-4.38,4.09-10.47,8.22-17.19,7.13,7.94-12.78,12.8-27.13,4.7-39.04-29.25-2.2-55.92,10.06-77.51,28.44-6.59,5.48-13.53,10.31-22.79,9.55,9.83-11.47,14.35-27.78,3.41-38.92-15.89-2.69-31.3,2.04-45.67,8.48-23.66,9.84-41.05,30.05-46.59,54.26-10.5-.52-.5,20.81,5.77,27.68,3.86,4.23,11.31,5.96,11.74,12.73-24.31,7.37-47.01,22.13-61.19,45.42,6.45.31,12.54-2.18,16.45-4.78,19.1,9.45,33.36-7.24,51.18-4.83-3.96-5.16-4.88-7.8-2.84-11.99,53.82-13.16,104.14-4.45,156.21-10.76l-4.69,42.28c-4.54,36.77-30.28,45.46-39.11,74.49l-134.08-14.56c-6.07-13.47-12.1-30.89-26.38-38.98-19.5-11.04-52.63-6.87-62.62-23.15l-16.43-40.07-5.65-31.47c47.43-23.31,80.52-79.92,106.37-128.21,1.66-3.1,5.09-5.33,5.98-7.41,11.78,8.96,20.78,20.43,35.81,24.97-14.11,6.17-29.29,9.04-45.52,4.83-.36,6.78,4.64,11.66,11.37,13.07,31.01,6.53,63.89-4.72,84.55-29.15,11.11-13.13,13.65-30.54,9.35-47.25-3.78-14.73-16.69-26.36-32.61-33.32-36.71-16.05-76.86-12.71-114.92.18-44.88,15.21-95.53,44.68-98.75,93.82-1.4,1.84-1.93,2.63-2.41,4.27-.54,1.87-3.46-3.35-4.84-3.21-15.63,1.66-22.04,16.2-29.38,19.7l-6.82-4.25c.32-2.17.36-5.32-.89-7.74-3.15-6.09-2.88-12.47-2.81-20.1l.83-97.73c.03-3.84,1.18-7.42,1.05-10.26,27.55-12.68,70.87,6.79,108.34,5.02l75.6-3.57c-6.21-6.58-15.08-7.13-15.62-15.95l8.09-12.85c12.3-3.83,24.51-5.62,37.95-2.68l48.15,10.55c1.81.4,3.83-2.09,3.97-2.86l-.05-.02Z"/>
          <path class="st4" d="M981.65,356.93c-4.99,24.93-22.6,46.43-27.77,71.32,20.15-.62,56.59-17.54,65.91-32.58l2.06,158.28,1.98,130.08c.7,45.9.44,90.19-5.71,133.99l-12.46-205.31-22.66,91.21c-1.14-1.98-3.71-2.85-4.23-1.79-.96,1.96-.95,5.03-1.23,9.1-4.03-1.54-4.21-6.64-3.24-11.12l-18.71-73.76c7.93-6.25,15.18-15.03,14.5-24.34,1.51-5.44,3.56-10.27,3.23-16.58-.27-5.08-2.69-9.98-8.97-11.5-.63-3.79-.1-7.53-3.27-12.25l-6.98,16.16c-13.23,13.29-43.1,39.49-50.15,33.28-5.52-4.87,2.57-31.14,11.23-37.61,12.3-9.18,24.87-15.83,36.55-25.92,22.95-19.81,55.51-59.04,38.1-74.31-13.27-11.64-42.18,12.19-57.18,29.39l-34.72,37.87c.65-38.81,1.15-77.1,4.57-116.01.58-6.57,5.43-12.28,10.34-15.64,24.31-16.58,45.88-34.99,68.79-51.97h.02ZM977,696l-1,1,1,1,1-1-1-1Z"/>
          <path class="st6" d="M1014.4,333.95l-32.75,22.98c-22.91,16.98-44.48,35.38-68.79,51.97-4.92,3.35-9.77,9.07-10.34,15.64-3.41,38.92-3.91,77.2-4.57,116.01-.21,12.24-13.18,22.01-16.18,34.77-1.2,5.12-5.58,4.85-7.36,6.51l-2.17-23.76c8.96-56.24,30.13-126.46-19.96-140.64l-95.07-26.91c-4.99-1.41-11.47-.57-11.1-6.86,19.02,6.94,39.02,6.6,60.04,10.03,38.47,6.29,78.51,4.11,110.91-18.58l44.58-37.7c2.75-2.33-19.65-30.25-27.79-29.55-49.93,4.33-98.93,9.59-148.89,8.53-6.13-8.71-17.31-23.91-31.81-22.46,44.82-10.86,90.86-10.8,137.19-8.7l57.76,2.62c16.96.77,35.8,1.09,50.6,9.3,13.68,7.59,14.03,24.04,15.69,36.81h0Z"/>
          <path class="st0" d="M479.28,541.77c-4.91,33.4.76,67.49,6.68,101.55,3.04,17.49,9.38,30.35,17.62,44.71s9.72,31.88,22.07,44.25c14.55,14.58,35.09,17.79,51.8,28.45,17.55,11.19,30.52,27.18,50.09,35.57,29.95,12.84,60.75,21.35,92.57,22.3-1.54,7.66,9.96,7.58,16.99,19.62-47.86-5.32-95.59-12.78-144.93-13.52-17.16-.26-32.88,6.07-50.42,2.83-20.59-3.8-42.81-16.92-53.74-35.24-15.64-26.22-15.01-56.41-14.75-86.35l1.43-162.35c.04-4.2-.33-8.37,3.71-9.57,1.25,2.42,1.21,5.58.89,7.74h-.01Z"/>
          <path class="st0" d="M955.61,626.35l18.71,73.76c-.97,4.47-.79,9.57,3.24,11.12.27-4.07.27-7.14,1.23-9.1.52-1.06,3.09-.19,4.23,1.79l-4.74,29.99c-1.21,32.92-3.03,64.35-11.2,95.15-.56,2.1-.6,4.33-2.37,4.97-2.34.85-4.18.32-6.59.31l-59.55-.25-8.24-10.33.21-130.87,19.58,21.68,24.52-70.69,21.32-20.09c.46.57.87,1.97-.34,2.58v-.02Z"/>
          <path class="st2" d="M764.91,858.06l-290.32-6.11c-11.04-.23-19.14,5.74-26.95,11.81-41.88,32.55-79.71,67.7-125.13,98.4l117.26-108.22c8.55-7.89,13.84-14.16,13.67-27.5l-3.8-294.37-1.73-239.1c.41-.48,1.04-.98,1.61-1.23l13.68,388.25,3.48,136.81c.29,11.52,7.77,20.28,19.73,20.73l331.46,12.58,200.45,10.1c-17.04,5.23-34.3.08-52.24-.11l-201.16-2.06v.02Z"/>
          <path class="st4" d="M753.17,293.93c14.51-1.45,25.68,13.76,31.81,22.46,11.38,16.15,43.23,17.24,65.45,24.37-42.16,9-135.56-35.13-148.54-13.68-10.07,16.65,20.39,45.73,42.03,56.52-.14.76-2.15,3.25-3.97,2.86l-48.15-10.55c-13.44-2.95-25.65-1.15-37.95,2.68-10.46-9.53-21-18.85-33.15-27.36l-66.45-20.85c6.75-11.86,11.24-23.15,11.57-35.96,63.07,9.33,125.67,5.68,187.34-.49h0Z"/>
          <path class="st6" d="M565.83,294.41c-.34,12.81-4.82,24.1-11.57,35.96l66.45,20.85c12.15,8.51,22.69,17.83,33.15,27.36l-8.09,12.85c.54,8.82,9.42,9.38,15.62,15.95l-75.6,3.57c-37.47,1.77-80.79-17.7-108.34-5.02l-1.61-35.3c33.76-11.87,63.02,5.36,67.72-17.34,4.25-20.52,2.23-41.58-1.44-61.49l23.7,2.6h0Z"/>
          <path class="st7" d="M1018.13,818.02c.38,6.24.16,13.47-2.04,20.11-21.84-.11-47.75,2.24-49.02-9.07,8.17-30.8,9.99-62.23,11.2-95.15l4.74-29.99,22.66-91.21,12.46,205.31h0Z"/>
          <path class="st9" d="M804.36,788.24c-4.11,13.52-6.3,31.04,9.14,38.27,9.01,4.22,21.23.29,30.19,1.69,2.45.38,6.6,2.14,8.18,3.88l8.13,8.94c-41.97,6-82.42,1.69-122.92-2.8-7.03-12.04-18.53-11.96-16.99-19.62,3.36.1,7.88.8,10.57-2.31-15.92-9.01-32.05-13.83-43.12-26.06,3.6-2.63,2.36-5.76.33-7.15-2.8-1.92-5.25-2.86-8.05-3.48-.04-.38-.1-.92,0-1.36,1.55-6.81,8.84-5.61,14.89-5.17,16.46,1.2,31.43,2.65,47.45,6.78,18.79,4.85,47.36.2,62.21,8.39h-.01Z"/>
          <path class="st7" d="M542.13,291.81c3.67,19.91,5.7,40.98,1.44,61.49-4.71,22.7-33.97,5.47-67.72,17.34-1.32-.2-5.56-1.94-5.75-4.85l-4.23-63.79c-.51-7.68,1.14-14.66,6.19-19.13,4.2-3.72,11.38-7.25,18.22-5.36l51.84,14.3h.01Z"/>
          <path class="st1" d="M891.76,659.28c2.5,11.73-1.21,22.56-1.23,33.59l-.21,130.87c-2.93,1.11-4.5,3.08-6.34,8.2-3.57-3.58-3.89-6.2-4.87-12.07-9.66,3-19.81,5.56-27.23,12.2-1.58-1.74-5.74-3.49-8.18-3.88-4.16-7-4.46-14.14-2.07-22.55l23.08-81.16c5.81-20.43,9.33-40.11,7.05-61.48l20-3.73h0Z"/>
          <path class="st7" d="M1014.4,333.95c2.67,20.58,5.12,41,5.39,61.72-9.32,15.04-45.77,31.96-65.91,32.58,5.17-24.89,22.78-46.39,27.77-71.32l32.75-22.98h0Z"/>
          <path class="st8" d="M317.09,965.15l2.86,1.21c-2.38,1.9-5.14,6.57-9.78,7.4.12-4.6,5.4-5.91,6.92-8.6h0Z"/>
          <path class="st8" d="M319.95,966.36l-2.86-1.21c1.27-2.26,1.58-3.57,3.87-3.15.77.14,1.62,1.4,1.09,2.84-.46,1.26-1.48,1.02-2.1,1.52Z"/>
          <circle class="st8" cx="306" cy="978" r="2.22"/>
          <path class="st2" d="M954.12,577.85c2.58-2.59,6.81-3.44,10.25-3.92,6.27,1.53,8.7,6.42,8.97,11.5.33,6.3-1.72,11.13-3.23,16.58-2.31,8.34-8.12,15.48-14.16,21.77l-21.32,20.09c-14.19,5.66-27.73,12.59-42.87,15.42l-20,3.73c-6.86,1.28-14.68,1.32-21.68,2.17-52.07,6.31-102.39-2.39-156.21,10.76-16.69,4.08-34.08,7.31-48.35,16.82-3.9,2.6-10,5.09-16.45,4.78,14.17-23.29,36.88-38.05,61.19-45.42,10.84-3.29,22.03-5.64,33.36-6.46l20.51-1.49c37.32,3.37,73.47,5,109.86,3.73,4.8-.17,9.58-.55,14.09-.96,10.2-.93,20.02-2.3,29.97-4.88,22.46-5.83,42.95-18.57,55.15-38.68,1.9-3.13,3.54-6.62,2.64-11.33-2.87.12-3.22,2.99-4.21,3.85l-18.07,15.58c-11.27,9.72-21.95,20.33-35.93,23.36-7.11,1.54-19.3,2.87-24.93-3.45-8.67-9.74-3.95-23.37-.64-35.54-8.84,3.68-16.33,6.83-25.6,6.47-20.97,24.49-64.1,45.94-75.62,22.06-3.63-7.54-2.38-17.77,3.46-27.95l-22.63,3.74c-9.11,11.22-20.63,19.42-32.44,26.97-10.49,6.71-30.67,10.14-39.9.86-3.88-3.9-5.98-10.31-6.57-16.29,5.54-24.21,22.93-44.42,46.59-54.26,14.37-6.44,29.78-11.17,45.67-8.48,10.94,11.14,6.42,27.45-3.41,38.92,9.26.76,16.2-4.07,22.79-9.55,21.6-18.38,48.26-30.64,77.51-28.44,8.1,11.91,3.24,26.27-4.7,39.04,6.72,1.09,12.81-3.04,17.19-7.13,1.78-1.66,6.16-1.39,7.36-6.51,2.99-12.76,15.97-22.53,16.18-34.77l34.72-37.87c14.99-17.2,43.9-41.03,57.18-29.39,17.41,15.27-15.15,54.5-38.1,74.31-11.68,10.08-24.25,16.73-36.55,25.92-8.66,6.46-16.75,32.74-11.23,37.61,7.05,6.22,36.92-19.99,50.15-33.28h0ZM978.42,485.29c-22.56,19.59-38.27,43.44-53,68.79,20.55-13.92,46.75-44.48,53-68.79ZM741.72,590.58c-7.14-9.82-2.79-17.3.58-28.31-18.19,10.47-40.49,35.04-32.02,49.71,13.68-2.73,24.19-10.95,31.44-21.4ZM836.16,594.18c-6.97-9.51-3.95-18.17-.04-29.61-17.53,10.41-33.32,26.12-34.31,47.08,14.4,2.27,24.21-7.52,34.35-17.47h0Z"/>
          <path class="st7" d="M746.13,383.66c-.54-.2-1.58-.08-2.19-.07-21.64-10.78-52.1-39.86-42.03-56.52,12.98-21.46,106.37,22.67,148.54,13.68-22.22-7.13-54.07-8.22-65.45-24.37,49.96,1.06,98.95-4.2,148.89-8.53,8.13-.7,30.54,27.22,27.79,29.55l-44.58,37.7c-32.41,22.69-72.44,24.87-110.91,18.58-21.03-3.44-41.03-3.09-60.04-10.03h-.02Z"/>
          <path class="st6" d="M583.19,705.27c9.99,16.27,43.12,12.1,62.62,23.15,14.28,8.09,20.32,25.51,26.38,38.98,2,4.44,3.02,8.74,7.62,10.85-.1.44-.04.99,0,1.36.59,5.09,4.9,7.5,7.73,10.63,11.07,12.24,27.21,17.05,43.12,26.06-2.68,3.11-7.2,2.41-10.57,2.31-31.82-.95-62.62-9.45-92.57-22.3-19.57-8.39-32.53-24.37-50.09-35.57-16.72-10.66-37.26-13.88-51.8-28.45-12.35-12.38-14.12-30.39-22.07-44.25,23.3,13.46,38.32-16.89,64.8,7.87,4.37,4.09,9,9.31,14.82,9.37h.01Z"/>
          <path class="st2" d="M709.27,523.08c11.67-5.11,20.32-14.01,25.48-25.15,10.63-22.95.45-46.53-23.7-55.22-17.22-6.2-35.44-5.81-53.89-3.66-13.89,1.62-26.06,6.49-38.36,12.1-31.38,14.32-61.9,43.58-62.98,78.92-.72,23.82,25,17,26.33,22.9,2.37,10.5-39.01,18.98-55.43-7.93-3.27-5.35-4.35-13.89-3.96-19.78,3.23-49.14,53.88-78.61,98.75-93.82,38.06-12.9,78.21-16.24,114.92-.18,15.92,6.96,28.83,18.6,32.61,33.32,4.29,16.71,1.75,34.12-9.35,47.25-20.66,24.43-53.54,35.68-84.55,29.15-6.72-1.42-11.73-6.29-11.37-13.07,16.22,4.21,31.41,1.35,45.52-4.83h-.02Z"/>
          <path class="st2" d="M695.76,469.82c-8.97,7.78-17.57,17.23-22.3,28.3-.89,2.08-4.32,4.31-5.98,7.41-25.84,48.29-58.94,104.9-106.37,128.21-16.95,4.23-34.73,7.05-51.38-1.45-11.08-5.16-16.34-15.68-16.71-27.45-.33-10.43,6.32-20.66,17.12-24.22,7.6-2.5,16.85-.04,19.76,7.43-6.31,7.06-15.09,22.63-7.36,31.12,8.92,9.8,23.87,1.03,31.47-4.13,26.6-18.06,59.61-86.77,97.32-129.83,8.31-9.5,18.88-17.39,29.23-24.5,8.34-5.73,23.4-11.68,31.35-7.97,10.52,4.91-6.37,8.58-16.17,17.08h.02Z"/>
          <path class="st4" d="M486.1,546.02c2.01,8.45,7.96,15.75,13.58,22.19l10.47,12.4c-10.81,3.55-17.45,13.79-17.12,24.22.37,11.77,5.63,22.29,16.71,27.45,16.65,8.51,34.43,5.69,51.38,1.45l5.65,31.47,16.43,40.07c-5.82-.06-10.45-5.28-14.82-9.37-26.47-24.75-41.49,5.59-64.8-7.87-8.23-14.36-14.58-27.22-17.62-44.71-5.91-34.06-11.59-68.15-6.68-101.55l6.82,4.25h0Z"/>
          <path class="st6" d="M871.76,663.01c2.28,21.37-1.24,41.05-7.05,61.48l-23.08,81.16c-2.39,8.41-2.09,15.54,2.07,22.55-8.95-1.41-21.18,2.53-30.19-1.69-15.44-7.23-13.26-24.76-9.14-38.27l1.91-6.28c8.83-29.02,34.57-37.72,39.11-74.49l4.69-42.28c7-.85,14.83-.89,21.68-2.17h0Z"/>
          <path class="st7" d="M734.74,497.93c-5.16,11.14-13.8,20.04-25.48,25.15-15.02-4.54-24.02-16-35.81-24.97,4.73-11.07,13.33-20.52,22.3-28.3,2.08,7.53,8.38,6.95,13.75,10.9l14.73,10.82c4.8,1.16,8.22,2.31,10.51,6.4h0Z"/>
          <path class="st7" d="M522.73,525.26c-.39,5.89.7,14.43,3.96,19.78-13.8,9.28-14.39,18.85-27.02,23.17-5.62-6.44-11.57-13.74-13.58-22.19,7.34-3.49,13.75-18.04,29.38-19.7,1.38-.15,4.3,5.07,4.84,3.21.48-1.64,1.01-2.43,2.41-4.27h0Z"/>
          <path class="st7" d="M672.76,611.72c.59,5.98,2.69,12.38,6.57,16.29,9.23,9.28,29.41,5.85,39.9-.86-.62,3.09-2.83,8.49.42,11.07,2.76,2.2,5.38,3.99,3.97,7.46-11.33.82-22.52,3.17-33.36,6.46-.42-6.77-7.88-8.5-11.74-12.73-6.27-6.87-16.27-28.21-5.77-27.68h.01Z"/>
          <path class="st4" d="M806.28,781.95l-1.91,6.28c-14.85-8.19-43.43-3.55-62.21-8.39-16.02-4.13-30.99-5.57-47.45-6.78-6.05-.44-13.34-1.64-14.89,5.17-4.6-2.11-5.62-6.41-7.62-10.85l134.08,14.56h0Z"/>
          <path class="st7" d="M693.87,675.95c-2.04,4.2-1.13,6.84,2.84,11.99-17.82-2.41-32.08,14.28-51.18,4.83,14.26-9.51,31.66-12.74,48.35-16.82h-.01Z"/>
          <path class="st1" d="M964.37,573.93c-3.44.48-7.67,1.33-10.25,3.92l6.98-16.16c3.18,4.72,2.65,8.46,3.27,12.25h0Z"/>
          <path class="st8" d="M955.61,626.35c1.21-.6.8-2,.34-2.58,6.04-6.29,11.85-13.42,14.16-21.77.68,9.31-6.57,18.09-14.5,24.34h0Z"/>
          <rect class="st0" x="976.28" y="696.3" width="1.41" height="1.41" transform="translate(-206.7 894.98) rotate(-45)"/>
          <path class="st8" d="M934.63,643.87l-24.52,70.69-19.58-21.68c.02-11.03,3.73-21.86,1.23-33.59,15.14-2.82,28.68-9.75,42.87-15.42h0Z"/>
          <path class="st4" d="M687.55,790.23c-2.83-3.13-7.14-5.54-7.73-10.63,2.81.62,5.25,1.57,8.05,3.48,2.03,1.39,3.28,4.52-.33,7.15h.01Z"/>
          <g>
            <path class="st7" d="M775.98,979.98c-1.85,3.81-5.02,8.19-10.45,7.49l-39.48-5.11-61.94-25.5c-37.79,6.67-74.18,10.73-112.06,13.41-35.46,2.51-45.47,14.3-72.05,13.67-25.27-.6-81.29-1.22-86.95-10.16-6.14-9.69,9.86-19.86,27.63-25.43,46.21-14.5,94.25-18.16,143.34-11.91,31-18.55,64.01-21.29,99.21-15.83,22.16,3.44,41.85,10.02,54.76,29.54,16.23,15.5,36.88,24.17,58,29.83h-.01Z"/>
            <path class="st4" d="M758.21,870.24c-15.03-.83-69.71,28.16-164.32,17.85-49.78-5.43-97.14-6.93-145.69-2.85,35.86-19.38,74.46-24.67,115.95-23.24l194.05,8.24h.01Z"/>
            <path class="st4" d="M726.05,982.36c-24.29-1.01-65.9-1.77-78.74,10.79-.99.97.28,3.97,2.1,4.2l4.41.57.09,3.97c-54.13-3.22-108.03-8.68-162.22-8.56.52-1.24.46-6.49-1.88-6.76-3.94-.44-7.87.2-9.81-2.65,26.59.63,36.59-11.17,72.05-13.67,37.88-2.68,74.27-6.73,112.06-13.41l61.94,25.5v.02Z"/>
            <path class="st0" d="M920.18,932.53c-6.64-7.48-15.85-4.88-25.21-11.16,4.58-2.5,8.59-5.29,8.83-10.1,1.71-1.38,14.11-13.43,15.54-13.77l4.25-1.01c1.24-.3,2.85-1.78.23-2.75,5.58-4.11-29.73-13.04-44.61-14.91,2.75-.54,4.74-2.53,4.54-5.57,34.12,2.14,88.53-.13,99.32,25.21l-21.52,8.79c-16.7,4.55-30.43,12.8-41.35,25.27h-.02Z"/>
            <path class="st0" d="M883.74,873.27c.21,3.04-1.78,5.04-4.54,5.57-22.58-2.84-45.35,1.6-66.9,8.72,2.42-5.24,6.37-8.6,5.25-13.92,22.04-2.11,44.12-1.76,66.18-.38h.01Z"/>
            <path class="st4" d="M653.91,1001.91l-.09-3.97,34.25,4.73c-.04.46-.5,1.25-1.18,1.21l-32.98-1.96h0Z"/>
            <path class="st0" d="M805.95,873.6c-9.02,4.56-24.41,3.54-21.95-1.93l21.95,1.93Z"/>
            <path class="st0" d="M783.99,871.66c-2.46,5.48,12.94,6.49,21.95,1.93l11.61.05c1.12,5.31-2.83,8.68-5.25,13.92-39.78,13.15-68.9,7.89-71.4,39.35,39.68,3.78,78.39,3.73,117.86,2.29,17.6-.64,32.16-7.5,45.04-17.92-.24,4.81-4.25,7.6-8.83,10.1,9.37,6.28,18.58,3.67,25.21,11.16-9.36,10.68-20.28,20.32-31.56,29.97-18.82,16.09-30.05-8.05-54.72,3.97l6.18-12.96-82.41,2.53,18.07,18.16c2.33,2.34,1,4.21.24,5.78-21.12-5.67-41.77-14.33-58-29.83-12.9-19.52-32.6-26.1-54.76-29.54-35.19-5.46-68.21-2.72-99.21,15.83-49.09-6.25-97.13-2.59-143.34,11.91-17.77,5.58-33.77,15.74-27.63,25.43,5.67,8.94,61.68,9.56,86.95,10.16,1.94,2.85,5.87,2.21,9.81,2.65,2.33.26,2.4,5.51,1.88,6.76-51.56.12-103.15.58-155.52-2.97-5.89-.4-11.68-2.89-12.75-7.54-.76-3.3,1.6-9.53,5.24-12.59,30.5-25.64,61.15-50.44,93.31-74.13,8.85-6.52,16.96-10.11,26.25-10.89,48.55-4.08,95.91-2.58,145.69,2.85,94.6,10.32,149.29-18.68,164.32-17.85l25.78,1.43h0Z"/>
            <path class="st7" d="M879.2,878.84c14.88,1.87,50.19,10.8,44.61,14.91-1.72,1.04-3.26,2.3-4.47,3.76-1.42.34-13.84,12.39-15.55,13.77-12.88,10.43-27.44,17.28-45.04,17.92-39.47,1.44-78.18,1.49-117.86-2.29,2.5-31.46,31.62-26.2,71.4-39.35,21.55-7.12,44.32-11.56,66.9-8.72h0Z"/>
            <path class="st0" d="M916.12,899.96c.55,2.08.17,4.7-1.41,5.69-1.5.94-3.6.29-4.77.46h-.01"/>
            <path class="st0" d="M919.34,897.51c1.22-1.46,2.75-2.72,4.47-3.76,2.62.97,1.02,2.45-.23,2.75l-4.25,1.01h.01Z"/>
          </g>
          <path class="st1" d="M897.63,634.85l.41,7.23c-9.94,2.58-19.76,3.94-29.97,4.88l-3.55-42.98c-8.46,14.93-8.03,29.84-10.53,43.94-36.38,1.27-72.54-.35-109.86-3.73l-20.51,1.49c1.41-3.46-1.2-5.26-3.97-7.46-3.25-2.59-1.04-7.98-.42-11.07,11.82-7.55,23.33-15.75,32.44-26.97l22.63-3.74c-5.84,10.17-7.1,20.41-3.46,27.95,11.52,23.88,54.65,2.43,75.62-22.06,9.27.36,16.75-2.79,25.6-6.47-3.31,12.17-8.03,25.8.64,35.54,5.63,6.33,17.82,4.99,24.93,3.45h0Z"/>
          <path class="st1" d="M741.72,590.58c-7.24,10.45-17.76,18.67-31.44,21.4-8.47-14.67,13.82-39.24,32.02-49.71-3.37,11-7.72,18.48-.58,28.31Z"/>
          <path class="st1" d="M836.16,594.18c-10.14,9.95-19.95,19.74-34.35,17.47.99-20.96,16.78-36.68,34.31-47.08-3.91,11.44-6.92,20.11.04,29.61h0Z"/>
          <path class="st4" d="M978.42,485.29c-6.25,24.32-32.45,54.87-53,68.79,14.73-25.35,30.44-49.2,53-68.79Z"/>
          <path class="st6" d="M953.19,603.39c-12.2,20.11-32.69,32.85-55.15,38.68l-.41-7.23c13.98-3.03,24.66-13.64,35.93-23.36l18.07-15.58,1.57,7.49h-.01Z"/>
          <path class="st6" d="M868.08,646.96c-4.51.41-9.28.8-14.09.96,2.5-14.11,2.07-29.01,10.53-43.94l3.55,42.98h.01Z"/>
          <path class="st8" d="M953.19,603.39l-1.57-7.49c.99-.85,1.34-3.73,4.21-3.85.9,4.71-.74,8.2-2.64,11.33h0Z"/>
          <path class="st1" d="M618.78,451.16c1.74,1.16,2.9,2.85,2.57,3.93-.5,1.66-1.17,2.93-4.29,6.47l22.39,14.93c4.35,2.9,10.46,2.75,11.89,8.7-37.71,43.06-70.72,111.77-97.32,129.83-5.22-11.53-12.39-23.56-24.11-26.99-2.92-7.47-12.17-9.93-19.76-7.43l-10.47-12.4c12.63-4.32,13.22-13.89,27.02-23.17,16.43,26.92,57.8,18.43,55.43,7.93-1.33-5.89-27.05.92-26.33-22.9,1.07-35.34,31.59-64.61,62.98-78.92v.02Z"/>
          <path class="st1" d="M734.74,497.93c-2.29-4.08-5.71-5.24-10.51-6.4l-14.73-10.82c-5.37-3.95-11.67-3.36-13.75-10.9,9.8-8.5,26.69-12.18,16.17-17.08-7.95-3.71-23.01,2.25-31.35,7.97-7.4-7.81-13.66-15.83-23.43-21.65,18.45-2.16,36.67-2.54,53.89,3.66,24.15,8.69,34.34,32.27,23.7,55.22h0Z"/>
          <path class="st7" d="M657.15,439.05c9.78,5.82,16.03,13.85,23.43,21.65-10.35,7.11-20.92,15-29.23,24.5-1.43-5.96-7.54-5.8-11.89-8.7l-22.39-14.93c3.12-3.55,3.79-4.81,4.29-6.47.32-1.08-.83-2.77-2.57-3.93,12.31-5.62,24.48-10.48,38.36-12.1v-.02Z"/>
          <path class="st4" d="M554.03,615.03c-7.6,5.16-22.55,13.94-31.47,4.13-7.73-8.49,1.04-24.06,7.36-31.12,11.72,3.43,18.89,15.46,24.11,26.99Z"/>
          <g>
            <path class="st1" d="M288.79,571.88c.95,2.03,1.92,5.65,1.65,7.84-.09.74-1.61,1.19-2.06,1.88-.74,1.11-.36,2.08.69,2.37.95.26,2.13.13,2.97.04,2.02,12.48,3.83,24.97,8.69,39.14,8.79-30.29,14.26-60.32,32.33-88.39-3.47,39.03-7.32,76.7-6.24,116.15,25.84-42.13,28.02-90.69,46.34-131.32l-4.98,66.39c-.43,5.68-1.59,10.55,4.3,13.54-8.48,9.05-14,31.53-11.62,45.92,7.44,44.88,10.8,88.66,2.78,132.32-2.03,11.06-7.08,23.62-17.49,28.22l-8.99-.37c-8.72-11.67-10.8-25.63-17.58-40.79-17.83,30.44-11.97,60.9-39.52,66.07-11.66-3.65-8.14-14.95-5.93-30.88,3.11-22.46,10.84-44.31,23.67-64.14l-10.09-37.93c-4.42-37.48-9.48-73.8-16.17-109.87.55-1.25.94-3.9.65-5.15-.31-1.32-3.37-1.41-3.71.39-.16.85-.64,2.26-2.18,2.76l-.18-60.21c0-1.6-.59-3.2-1.23-3.7-.59-.45-2.06-.44-3.14-.62l.36-4.31c4.31,1.09,4.44-2.43,4.18-6.24-.19-2.74-.11-5.65-3.97-5.55.2-11.05.99-21.54,5.9-31.74,8.42-.24,10.7,30.68,9.14,43.9-1.85,15.66,1.87,29.89,6.12,45,1.1,3.91.08,8.73,5.32,9.29h-.01Z"/>
            <path class="st8" d="M262.11,517.23l.21-11.79c3.87-.1,3.79,2.81,3.97,5.55.26,3.82.13,7.33-4.18,6.24Z"/>
            <path class="st0" d="M373.18,519.6c-18.32,40.63-20.51,89.19-46.34,131.32-1.08-39.45,2.77-77.13,6.24-116.15-18.07,28.06-23.54,58.1-32.33,88.39-4.87-14.16-6.67-26.66-8.69-39.14-.25-1.52-.35-3.01-1.6-4.29.27-2.18-.7-5.81-1.65-7.84-4.96-22.83-7.78-45.4-4.34-69.47-7.18-11.51-7-25,1.26-35.45,14.04.63,22.05-8.23,27.89-18.65,14.39-8.16,28.36-15.61,45.54-12.69,7.09-2.68,11.48-7.85,11.58-15.31.27-20.93,16.51-28.62,29.44-42.73-7.84,32.57-25.29,62.87-25.88,90.34l-1.1,51.67h-.02Z"/>
            <path class="st7" d="M427.33,543.54c-1.78-33.33-14.19-12.54-30.76,22.82-6.31,13.47-14.15,22.57-24.08,33.17-5.89-2.99-4.72-7.86-4.3-13.54l4.98-66.39,1.1-51.67c.59-27.47,18.04-57.77,25.88-90.34l13.87-57.63c4.56-2.5,6.56-7.3,11.53-12.11l6.8,203.89c.39,11.72-.72,22.49-5.04,31.8h.02Z"/>
            <path class="st6" d="M427.33,543.54l8.58,160.58c-4.94-3.47-4.85-9.73-6.02-14.75-4.37-18.74-8.6-37.25-18.62-56.05-7.01,10.3-9.53,22.14-11.49,34.57l-11.49,72.62c-2.35,14.84-16.81,25.67-24.63,37.26,8.02-43.66,4.66-87.44-2.78-132.32-2.39-14.4,3.14-36.87,11.62-45.92,9.93-10.6,17.77-19.71,24.08-33.17,16.57-35.35,28.98-56.15,30.76-22.82h-.01Z"/>
            <path class="st9" d="M337.18,805.61c-11.85,31.88-14.84,64.95-14.24,99.64,13.01-9.8,23.76-16.53,35.31-23.68-19.21,35.63-37.55,64.04-75.5,82.58-3.93-13.23-2.97-24.86-.82-38.04l-10.14,6.29-1.03-99.75,9.33-1.75c27.55-5.17,21.69-35.62,39.52-66.07,6.78,15.16,8.86,29.12,17.58,40.79h0Z"/>
            <path class="st4" d="M435.91,704.12c1.55,28.99,8.58,65.52.54,84.52-6.03,14.25-12.25,25.02-13.11,41.56-.54,10.48-4.43,26.98-13.32,33.4-8.2,5.92-21.18,2.16-29.61,1.96l-12.38-5.05,24.22-20.02c16.11-13.11,21.2-31.83,20.73-52.56l-1.29-55.88c-.4-17.29,4.43-32.94,18.2-42.69,1.17,5.02,1.08,11.28,6.02,14.75h0Z"/>
            <path class="st6" d="M414.03,319.95l-13.87,57.63c-12.92,14.11-29.16,21.8-29.44,42.73-.1,7.46-4.49,12.63-11.58,15.31-17.17-2.92-31.14,4.53-45.54,12.69,26.5-47.66,60.41-90.4,96.52-132.48,2.23.89,3.02,2.75,3.9,4.12h.01Z"/>
            <path class="st4" d="M274.14,800.01c-2.27-1.32-2.8-4.19-2.81-8.13l.22-203.82c6.7,36.07,11.76,72.4,16.17,109.87l10.09,37.93c-12.84,19.83-20.56,41.68-23.67,64.14h0Z"/>
            <path class="st6" d="M346.17,805.99c2.86,24.52,1.49,46.23,21.86,54.53l12.38,5.05c-8.56,4.51-14.8,11.44-22.17,16-11.55,7.15-22.29,13.89-35.31,23.68-.61-34.69,2.38-67.75,14.24-99.64l8.99.37h.01Z"/>
            <path class="st0" d="M429.89,689.37c-13.77,9.75-18.59,25.4-18.2,42.69l1.29,55.88c.48,20.72-4.62,39.45-20.73,52.56l-24.22,20.02c-20.37-8.3-19-30.01-21.86-54.53,10.4-4.6,15.45-17.16,17.49-28.22,7.82-11.59,22.28-22.43,24.63-37.26l11.49-72.62c1.97-12.43,4.48-24.28,11.49-34.57,10.03,18.8,14.26,37.3,18.62,56.05h0Z"/>
            <path class="st8" d="M292.04,584.01c-.84.08-2.03.22-2.97-.04-1.05-.29-1.42-1.26-.69-2.37.45-.68,1.97-1.14,2.06-1.88,1.25,1.28,1.35,2.77,1.6,4.29Z"/>
          </g>
        </g>
        <g>
          <path class="st3" d="M1782.14,1116.71c-13.67,20.75-37.77,35.32-63.6,29.01l-408.74-99.86c-22.74-5.55-47.79-12.91-61.63-32.98-56.93-82.5-110.85-165.57-161.36-252.15-9.77-16.75-18.65-37.77-10.13-56.63l204.61-453.12c16.57-36.69,49.37-56.79,89.18-44.08l464.64,148.33c21.05,6.72,37.75,25.95,43.1,46.29l70.17,266.8c5.4,20.52,6.49,40.84-1.92,61.23l-132.74,322.33c-9.48,23.02-17.43,43.35-31.58,64.84h0ZM1110.38,785.24l18.22,31.17,12.97,19.59,28.04,43.76,85.21,129.38c8.11,12.31,24.67,20.69,39.5,24.35l420.29,103.78c44.44,10.97,64.58-24.34,81.12-64.19l137.37-330.98c9.33-22.48,15.25-42.59,8.89-66.73l-70.07-266.27c-5.61-21.31-16.64-39.46-38.81-46.6l-217.4-70.04-2.6-.78-245.58-77.59c-36.08-11.4-64.4,7.89-79.28,40.77l-199.36,440.73c-9.61,21.24-9.28,41.21,4.59,59.22l16.91,30.42h0Z"/>
          <path class="st8" d="M1613.09,291.7c-1.28,1.65.85,2.92,2.6.78l217.4,70.04c22.17,7.14,33.2,25.29,38.81,46.6l70.07,266.27c6.36,24.14.44,44.25-8.89,66.73l-137.37,330.98c-16.53,39.85-36.69,75.16-81.12,64.19l-420.29-103.78c-14.82-3.66-31.39-12.04-39.5-24.35l-85.21-129.38,6.85.25,4.51,2.9,63.17,95.13c10.21,15.37,40,46.73,55.34,48.46,45.07,5.1,89.32,11.8,133.99,25.16l69.32,20.72,27.09,9.74,154.34,37.13c12.88,3.1,28.98-5.56,37.35-13.69,6.9-6.71,4.46-16.63,1.91-23.63-11.99,25.6-63.8,6.46-98.66-3.01-37.23-10.12-91.51-34.4-79.28-68.94,3.36-9.48,12.36-17.33,23.09-20.04,16.13-4.09,33.16.78,48.65,9.32l71.05,39.2c2.67,1.47,6.96.96,8-.95,2.96-5.4-38.73-52.54-48.38-75.27-7.51-39.48-39.23-66.25-79.66-74.19l-76.64-15.03c-3.06-.6-5.89.02-6.72,1.86l-47.5-14.81c-1.77-.55-4.15-1.12-5.68-2.19-4.2-2.93-9.24-1.66-13.83-3.5-33.6-12.88-68.12-25.03-103.76-34.88-10.55,2.96-19.97,5.05-30.47,3.38,23.22,29.63,44.93,53.39,83.74,50.46,20.97-.16,40.38,6.94,58.47,15.37l1.74,1.91c-18.1.88-33.32-1.45-50.13,2.65-5.81-.18-15.55,7.08-14.54,13.6-4.4.17-7.55,1.69-11.76,2.98-3.72-5.4-8.37-7.51-13.5-5.79,2.09-12.72-1.7-22.37-13.64-28.27-17-8.41-25.47-26.86-40.58-37.78-25.81-18.66-56.65-27.87-85.01-41.52,1.55-2.25,2.56-3.88,1.61-6.36-1.17-3.05-17.18-11.87-23.22-7.6l-6.67-6.58c-15.23-6.72-31.67-9.61-48.45-10.31-3.48,5.53-6.09,13.28-4.75,18.24l-6.58,1.38-16.91-30.42c-13.87-18.01-14.2-37.98-4.59-59.22l199.36-440.73c14.88-32.87,43.2-52.17,79.28-40.77l245.58,77.59h0ZM1383.79,237.24l-4.5-.46c-11.56-1.18-25.35-5.01-36.86-1.17-15.44,5.16-29.36,17.03-36.89,32.9l-66.47,140.19-45.18,110.59c-15.1,36.97-30.52,72.93-49.7,109.17-8.55,16.16-19.01,33.49-22.29,49.9-5.8,28.98,17.86,51.75,45.98,52.75,37.55,1.34,70.76,9.8,106.32,21.25l232.48,74.88c18.44,5.93,35.17,8.55,54.01,3.91,12.54,1.5,21.58,9.08,29.06,19.71,16.58-.54,32.14-4.38,46.21-12.15,19.37-16.01,13.54-46.41,38.24-84.04,10.72-16.35,18.37-34.35,24.56-51.72.27-.76-.1-2.59.06-3.33,8.08-8.74,11.05-21.05,16.43-31.64,13.08-30.53,26.67-61.23,36.62-92.41-.02-2.87,2.37-4.33,3.44-6.34l22.47-41.98c23.28-43.51,41.02-88.4,44.52-138.3.78-11.01-12.03-21.28-22.46-24.16l-101.03-27.94-79.08-23.89c2.61-1.71,5.74-9.15,2.17-10.11l-42.21-11.41c-47.29-15.48-93.66-29.32-142.56-40.15-1.52-.51-2.32,1.84-1.77,2.84-15.24-9.54-34.12-15.11-51.57-16.9v.02ZM1839.36,418.04l-32.5,78.65-159.46,381.29c-3.87,9.26-12.74,8.51-20.73,6.17l-332-97.37-186.06-52.29c-.53.46-1.24.94-1.76,1.81l284.96,90.45,224.01,69.76c16.01,4.98,25.94,9.94,34.13,25l85.98,158.29,3.41-1.63-69.54-148.94c-9.48-20.31-12.36-37.34-3.76-58.83l72.47-181.04c3.38,2.72,2.53,8.73,9.14,10.88l-16.03,50.72-45.49,112.94c-6.67,16.54-8.47,32.83-1.79,49.89,11.88,30.38,27.24,59.05,44.29,87.08,1.4,2.31,6.55,1.92,7.59,1.57,4.17,1.75,5.95,6.05,7.31,10.82,1.37,5.15,3.75,9.37,8.08,11.15-1.99,14.22,9.63,29.32,22.4,38.23,10.04-4.87,17.21-12,21.78-21.26l35.66-72.12,28.19-72.61,37.45-99.49,11.8-40.24c7.25-24.72,16.26-48.05,21.31-73.63-7.93-2.28-12.02,2.57-17.57,7.52-6.06-11.52-6.85-23.17-7.96-35.6,3.96,1.69,7.94,3.55,10.67,2.35s3.77-7.36,4.46-11.32c.88-29.77-10.06-56.86-17.62-84.51l-1.57.99c2.66,15.28,3.05,32.81-4.39,47.96-4.97-1.5-6.54-4.67-10.45-8.32-11.84,38.8-18.78,77.16-26.88,118.83-13.29-27.06-5.85-69.16-24.65-51.55,1.12-4.05,3.69-7.94,2.97-13.28l-23.65-8.14c-.6-21.98,4.28-41.86,7.15-63.06,5.53-40.88,10.86-80.26,19.8-120.56.68-3.1.6-8.2-.37-10.43-1.04-2.39-6.11-3.67-8.69-5.17,4.04-10.27,6.94-19.82,10.21-29.43,1.98-5.82,6.68-12.35,4.9-19.79l-7.19,18.23h0ZM1864.67,427.67c-9.99,16.37-10.2,33.06-10.84,50.17-1.07,28.34-4.11,79.43,14.64,88.35,37.38,17.74,8.09-102.99-3.8-138.52ZM1899.45,560.32c.66,1.81,2.59.63,1.27-.79l-1.27.79ZM1747.79,1097.32c-3.72-5.55-3.62-13.1-10.44-18.51.86,8.7,6.87,13.42,9,19.77l1.44-1.26h0ZM1748.65,1098.6l-1.71,1.7.69,2.29,1.84-1.65-.82-2.35h0ZM1750.04,1102.5l-1.7,1.32.74,1.19,1.68-.82-.72-1.68h0ZM1751.4,1105.13l-1.03,2.4c1.52.27,2.35-1.35,1.03-2.4Z"/>
          <path class="st2" d="M1811.53,499.65l-73.02,189.72-72.47,181.04c-8.6,21.49-5.72,38.52,3.76,58.83l69.54,148.94-3.41,1.63-85.98-158.29c-8.19-15.07-18.13-20.02-34.13-25l-224.01-69.76-284.96-90.45c.52-.86,1.23-1.36,1.76-1.81l186.06,52.29,332,97.37c7.99,2.35,16.86,3.09,20.73-6.17l159.46-381.29,4.68,2.96h0Z"/>
          <path class="st7" d="M1755.33,569.25l.22-2.09c.92-4.53,3.64-9.65,1.55-13.89,9.42-34.36,19.39-68.14,34.7-100.24,1.81-3.8-.45-9.93-2.75-13.58-16.72-26.56,8.12-42.46-8.56-56.23-13.26-10.94-28.65-17.4-44.73-24l-42.35-17.39c1.35-2.18,3.55-3.07,5.42-4.96l101.03,27.94c10.43,2.88,23.24,13.16,22.46,24.16-3.51,49.9-21.23,94.79-44.52,138.3l-22.47,41.98v-.02Z"/>
          <g>
            <path class="st9" d="M1897.07,797.18l-37.45,99.49-24.42,23.6c-1.08-2.39.21-5.37.66-6.76.38-1.16-3.15-2.52-3.92-1.51l-2.38,3.08c-8.46,4.34-17.7,2.52-27.14-1.75-8.26,5.36-17.19,6-27.3,2.21-4.46,7.6-11.41,10.58-19.9,9.99-8.76,5.66-16.42,11.23-27.34,14.26-2.48-26.11-7.13-51.75-13.69-77.35-2.4-9.37,1.01-17.58,5.33-25.54l22.41-41.29c7.9-14.53,15.68,8.72,34.6.47,5.29,12.11,8.88,25.17,19.84,34.17,4.14,4.17,9.47,5.22,14.51,4.07,5.1-1.17,5.93-7.55,8.94-9.84,16.58-12.55,24.75-32.03,32.99-52.68-3.3,23.4-6.35,47.05-.4,72.09l44.64-46.71h0Z"/>
            <path class="st7" d="M1834.24,669.68c-11.16,40.4,18.31,87.93-14.41,154.81-3.02,2.29-3.84,8.67-8.94,9.84-5.04,1.15-10.37.11-14.51-4.07-10.97-9-14.55-22.06-19.84-34.17-2.42-24.72-3.49-49.93-.14-75.68,2.05-17.36,8.82-32,18.19-46.8,10.1-41.35,18.48-81.29,24.45-124.71l-71.39,151.35c-6.62-2.16-5.75-8.16-9.14-10.88l73.02-189.72,19.9-50.62c2.58,1.49,7.65,2.77,8.69,5.17.97,2.23,1.05,7.34.37,10.43-8.94,40.3-14.27,79.69-19.8,120.56-2.86,21.21-7.76,41.08-7.15,63.06l23.65,8.14c.72,5.33-1.85,9.23-2.97,13.28h.02Z"/>
            <path class="st0" d="M1776.54,796.09c-18.92,8.25-26.72-15-34.6-.47l-22.41,41.29c-4.32,7.96-7.73,16.17-5.33,25.54,6.56,25.6,11.21,51.24,13.69,77.35,10.94-3.03,18.59-8.6,27.34-14.26,8.49.59,15.45-2.39,19.9-9.99,10.11,3.79,19.04,3.15,27.3-2.21,9.44,4.28,18.69,6.1,27.14,1.75l2.38-3.08c.78-1,4.31.35,3.92,1.51-.45,1.38-1.73,4.36-.66,6.76l24.42-23.6-28.19,72.61-35.66,72.12c-4.57,9.25-11.74,16.38-21.78,21.26-12.75-8.9-24.39-24.01-22.4-38.23,18.13-31.78,41.92-69.66,40.31-105.69-15.85,4.26-25.73,16.26-38.63,22.83-13.01,6.63-18.98,15.08-18.32,30.85l1.26,30.04c-1.04.34-6.19.73-7.59-1.57-17.06-28.04-32.42-56.71-44.29-87.08-6.67-17.06-4.86-33.36,1.79-49.89l45.49-112.94,16.03-50.72,71.39-151.35c-5.98,43.42-14.35,83.36-24.45,124.71-9.38,14.8-16.14,29.46-18.19,46.8-3.34,25.76-2.28,50.96.14,75.68v-.03Z"/>
            <path class="st6" d="M1897.07,797.18l-44.64,46.71c-5.95-25.03-2.91-48.68.4-72.09-8.25,20.63-16.42,40.12-32.99,52.68,32.72-66.87,3.24-114.41,14.41-154.81,18.79-17.6,11.35,24.5,24.65,51.55,8.1-41.67,15.04-80.04,26.88-118.83,3.91,3.65,5.48,6.82,10.45,8.32,7.44-15.16,7.04-32.68,4.39-47.96-.07-.43-.09-1.01-1.15-2.43.66,1.81,2.59.63,1.27-.79l1.44,2.23c7.56,27.65,18.51,54.73,17.62,84.51-.69,3.96-1.78,10.14-4.46,11.32s-6.7-.67-10.67-2.35c1.11,12.43,1.89,24.07,7.96,35.6,5.54-4.95,9.64-9.8,17.57-7.52-5.05,25.57-14.06,48.91-21.31,73.63l-11.8,40.24h-.03Z"/>
            <path class="st4" d="M1864.67,427.67c11.9,35.53,41.19,156.28,3.8,138.52-18.77-8.91-15.71-60.01-14.64-88.35.64-17.12.85-33.8,10.84-50.17Z"/>
            <path class="st7" d="M1751.6,1024.43c-4.33-1.79-6.71-6-8.08-11.15-1.36-4.76-3.13-9.06-7.31-10.82l-1.26-30.04c-.65-15.77,5.31-24.22,18.32-30.85,12.9-6.57,22.78-18.56,38.63-22.83,1.61,36.04-22.18,73.91-40.31,105.69h0Z"/>
          </g>
          <path class="st3" d="M1831.43,449.03l-19.9,50.62-4.68-2.96,32.5-78.65,2.28,1.57c-3.27,9.61-6.17,19.17-10.21,29.43Z"/>
          <path class="st9" d="M1746.36,1098.59c-2.14-6.36-8.14-11.07-9-19.77,6.81,5.41,6.71,12.96,10.44,18.51l.86,1.28.82,2.35.58,1.55.72,1.68c.15.36.33.72.62.95,1.32,1.04.49,2.66-1.03,2.4l-1.28-2.52-.74-1.19c-.25-.4-.59-.76-.72-1.22l-.69-2.29-.58-1.72h0Z"/>
          <path class="st4" d="M1841.64,419.59l-2.28-1.57,7.19-18.23c1.78,7.44-2.92,13.98-4.9,19.79h0Z"/>
          <g>
            <path class="st1" d="M1176.45,880.01l-6.85-.25-28.04-43.76c4.72,1.04,2.96-21.45,2.08-23.14-1.33-2.54-9.27-7.78-10.24-5.56l-4.8,9.11-18.22-31.17,6.58-1.38c2.22,8.3,10.26,12.56,18.52,14.55,10.69,3.71,16.72,12.08,13.75,23.09,8.02,20.61,16,40.51,27.21,58.52h0Z"/>
            <path class="st8" d="M1141.57,836l-12.97-19.59,4.8-9.11c.97-2.21,8.92,3.03,10.24,5.56.89,1.69,2.64,24.17-2.08,23.14Z"/>
            <path class="st6" d="M1362.93,906.86c4.83,31.44-21.9,33.02-23.03,43.61-1.38,12.83,42.19,19.89,62.94,24.86l37.39,8.94c15.22,11.6,30.26,21.95,42.41,35.79,5.52,7.93,9.92,16.29,12.66,25.64l-39.17-9.9c-15.63-3.82-29.75-10.13-41.27-21.98,6.32-3.24,12.25-2.52,17.27-7.94l-70.78-11.81c-15.36-2.56-29.77-7.06-40.68-19.35-8.87,4.65-12.35,12.73-14.37,21.58l-6.87,30.2c-15.34-1.73-45.13-33.09-55.34-48.46-2.65-32.22-8.33-65.35-17.77-97.38,30.66,28.05,66.37,35.23,107.83,44.66l3.49-21.27c5.14-1.73,9.79.39,13.5,5.79,4.21-1.29,7.36-2.81,11.76-2.98h0Z"/>
            <path class="st7" d="M1494.89,920.08l24.86,22.73-4.11,44.47c-8.71,4-19.49,9.68-29.26,7.47l-46.13-10.48-37.39-8.94c-20.76-4.97-64.32-12.03-62.94-24.86,1.13-10.58,27.87-12.17,23.03-43.61-1-6.52,8.72-13.78,14.54-13.6,16.81-4.1,32.03-1.77,50.13-2.65,21.68,10.45,42.16,25.08,67.27,29.46h0Z"/>
            <path class="st0" d="M1484.89,874.87c2.52,5.98,9.23,5.64,15.19,8.14,52.11,21.83,101.19,48.18,147.84,79.22,9.65,22.72,51.35,69.87,48.38,75.27-1.05,1.91-5.34,2.43-8,.95l-71.05-39.2c-15.49-8.54-32.52-13.41-48.65-9.32l-.41-2.9c6.21-.05,9.5-5.24,8.33-11.26-7.61-39.3-42.07-53.62-81.66-55.71-25.11-4.37-45.58-19.01-67.27-29.46l-1.74-1.91c2.57-1.62,5.09-1.2,8.4,1.48l-1.84-8.48,4.96-21.65,47.5,14.81h.02Z"/>
            <path class="st4" d="M1568.21,987.04l.41,2.9c-10.73,2.72-19.74,10.57-23.09,20.04-12.22,34.54,42.05,58.82,79.28,68.94,34.87,9.47,86.67,28.61,98.66,3.01,2.55,7,4.99,16.92-1.91,23.63-8.37,8.13-24.47,16.79-37.35,13.69l-154.34-37.13-27.09-9.74c5.08-10.73-4.82-17.74-7.45-26.68-2.76-9.35-7.15-17.71-12.66-25.64,1.34-.37,2.42-2.03,1.85-2.7l-4.46-5.18,13.24-2.97c.82-7.82,3.15-10.68,9.66-12.4,5.41-1.43,9.11-1.2,15.93,2.59-1.64-2.46-4.13-5.48-2.43-6.9l4.82-5.07,46.94-.4h0Z"/>
            <path class="st7" d="M1337.68,904.05l-3.49,21.27c-41.47-9.43-77.17-16.61-107.83-44.66l-26.29-24.05c-15.79-14.44-12.71-44.04-1.62-60.13,28.37,13.63,59.21,22.86,85.01,41.52,15.1,10.91,23.57,29.36,40.58,37.78,11.94,5.91,15.73,15.57,13.64,28.27h0Z"/>
            <path class="st0" d="M1495.32,1045.69c2.63,8.94,12.52,15.95,7.45,26.68l-69.32-20.72c-44.67-13.35-88.92-20.06-133.99-25.16l6.87-30.2c2.01-8.85,5.5-16.94,14.37-21.58,10.9,12.29,25.32,16.78,40.68,19.35l70.78,11.81c-5.02,5.41-10.96,4.71-17.27,7.94,11.52,11.84,25.64,18.15,41.27,21.98l39.17,9.9h0Z"/>
            <path class="st9" d="M1417.88,854.38c2.04,5.54,10.04,7.52,13.83,3.5,1.53,1.07,3.91,1.64,5.68,2.19l-4.96,21.65,1.84,8.48c-3.31-2.68-5.83-3.1-8.4-1.48-18.1-8.43-37.51-15.53-58.47-15.37-38.82,2.93-60.53-20.83-83.74-50.46,10.49,1.66,19.92-.43,30.47-3.38,35.64,9.86,70.17,22,103.76,34.88h0Z"/>
            <path class="st9" d="M1198.45,796.48c-11.09,16.09-14.17,45.69,1.62,60.13l26.29,24.05c9.45,32.03,15.13,65.15,17.77,97.38l-63.17-95.13c-.64-28.26-4.74-55.07-9.24-82.85-1.06-6.52.17-14.04,5.12-17.54,6.05-4.27,22.05,4.55,23.22,7.6.95,2.48-.07,4.11-1.61,6.36h0Z"/>
            <path class="st7" d="M1647.93,962.23c-46.64-31.06-95.73-57.4-147.84-79.22-5.96-2.49-12.67-2.16-15.19-8.14.83-1.85,3.66-2.46,6.72-1.86l76.64,15.03c40.43,7.93,72.16,34.71,79.66,74.19h0Z"/>
            <path class="st7" d="M1176.84,782.52c-4.95,3.49-6.17,11.02-5.12,17.54,4.5,27.79,8.6,54.59,9.24,82.85l-4.51-2.9c-11.2-17.99-19.19-37.89-27.21-58.52,2.98-11.01-3.07-19.38-13.75-23.09-8.26-1.99-16.3-6.24-18.52-14.55-1.33-4.97,1.28-12.71,4.75-18.24,16.78.7,33.21,3.6,48.45,10.31l6.67,6.58v.02Z"/>
            <path class="st0" d="M1431.72,857.87c-3.8,4.01-11.8,2.03-13.83-3.5,4.6,1.83,9.64.57,13.83,3.5Z"/>
            <path class="st9" d="M1521.26,987.42l-4.82,5.07c-1.7,1.41.77,4.43,2.43,6.9-6.82-3.79-10.51-4.02-15.93-2.59-6.51,1.72-8.84,4.58-9.66,12.4l-13.24,2.97,4.46,5.18c.58.67-.51,2.33-1.85,2.7-12.15-13.84-27.19-24.2-42.41-35.79l46.13,10.48c9.77,2.22,20.54-3.45,29.26-7.47,1.34-.62,3.68.16,5.64.15h0Z"/>
            <path class="st8" d="M1568.21,987.04l-46.94.4c-1.96.02-4.29-.77-5.64-.15l4.11-44.47-24.86-22.73c39.58,2.08,74.05,16.42,81.66,55.71,1.17,6.02-2.13,11.19-8.33,11.26h0Z"/>
          </g>
          <g>
            <path class="st6" d="M1613.09,291.7l2.6.78c-1.75,2.14-3.88.87-2.6-.78Z"/>
            <path class="st9" d="M1654.58,443.44c30.36,20.41,64.6,35.35,101.56,36.74-.07,2.31,2.5,4.18,4.08,3.69,1.05-.32,1.28-3.11,2.25-3.51l6.83-2.76c1.61-.23,3.79.33,4.35,1.43s1.13,4.69.4,6.39c-10.72,25.16-16.93,49.98-23.11,76.74-1.09,4.73-3.85,9.78.93,13.43-9.95,31.18-23.53,61.88-36.62,92.41-5.57-1.68-12.11-4.34-15.51.78-9.38-6.18-20.82-1.46-32.99-3.68l11.19-18.09c1.84-3.45.71-7.41-1.53-9.25-2.08-1.7-5.04-2.23-8.21-1.9-6.07,1.52-11.38,2.11-16.29,2.08-2.75-1.99-4.4-4-5.45-7.23,12.66-5.93,23.24-18.76,14.9-33.03-15.4-10.34-35.89-11.06-53-5.51l-22.55-23.26c1.89-7.12,8.9-10.12,17.01-8.74l30.88,5.29c3.92.67,6.9-2.03,8.76-3.41,2.01-1.5,4.01-8.81,1.7-9.35-11.08-2.62-21.82-1.16-32.13-6.27,6.53-7.6,15.55-12.15,19.01-22.94-18.11-6.91-34.01,4.5-49.29,14.37-8.33,5.38-20.08-.18-27.78-2.89l-2.53-.87.2-1.51c.99-7.2-1.07-12.52-4.37-19.11-6.91-13.76-2.84-30.48-15.86-42.36.76-.16,1.16-.85,1.11-1.07-1.79-8.75.83-17.57.26-27.19-.26-4.46-3.28-10.79.18-14.17,4-3.91,8.86-.84,13.85.48l48.65,12.81c9.45-19.38,29.62-5.32,33.57-15.62,9.57,6.69,15.28,15.72,25.52,17.1v-.02Z"/>
            <path class="st9" d="M1379.29,236.77c5.08,37.01,18.67,72.22,32.31,106.44-21.74,16.02-42.56,30.56-51.92,55.59-7.11,19.02-15.32,36.27-19.78,56.6-.96,4.36-7.05,9.25-2.83,14.01l-1.07,3.92-20.06,42.36c-17.95-1.39-36.12,5.59-46.34,16.91-13.7,15.18-18.99,33.32-13.05,52.12,3.46,10.96,12.32,20.59,22.68,26.81l-26.24,65.59c-4.8,11.79-10.68,22.19-17.28,31.9,5.19-37.08-41.94,3.86-102.34-23.3l-11.46-7.35c3.28-16.41,13.75-33.74,22.29-49.9,19.18-36.24,34.6-72.2,49.7-109.17,2.27.05,4.81,1.17,6.14,2.65,4.55,5.07-.54,11.96,2.12,18.3-1.71,4.03-3.64,8.72-4.09,13.2l22.29-4.93c8.28.26,14.34-6.67,20.5-11.68,2.25-1.83,5.27-2.06,7.49-6.55l30.37-61.29c12.52-25.26,29.44-47.28,47.46-68.93,15.4-18.49,24.31-40.26,35.87-61,9.02-16.2,10.99-30.35,3.7-47.92l-23.32-55.51c11.51-3.84,25.3-.02,36.86,1.17v-.02Z"/>
            <path class="st0" d="M1715.27,668c-5.38,10.59-8.35,22.89-16.43,31.64l1.76-8.38c-4.69-1.05-6.81,2.07-7.19,5.44-.42,3.75.6,6.72,5.37,6.26-6.2,17.39-13.84,35.38-24.56,51.72-24.7,37.62-18.87,68.03-38.24,84.04-14.07,7.77-29.63,11.61-46.21,12.15-7.47-10.64-16.52-18.22-29.06-19.71-18.85,4.64-35.58,2.03-54.01-3.91l-232.48-74.88c-35.56-11.45-68.78-19.91-106.32-21.25-28.12-1.01-51.77-23.77-45.98-52.75l11.46,7.35c60.4,27.15,107.53-13.77,102.34,23.3l-4.21,7.9c27.99-2.51,53.5-11.7,76.21-29.36,18.75,31.87,43.72,59.29,75.96,72.71l59.51,24.79c40.24,7.93,80.48,3.52,120.88,1,31.48-1.97,61.3-10.28,85.62-28.46,14.83.35,23.23-16.39,21.17-30.3l19.63-35.28c4.89-7.33,7.87-15.18,9.29-23.24,3.4-5.12,9.93-2.46,15.51-.78Z"/>
            <path class="st7" d="M1619.74,312.98l-37.96-1.93c-13.91.05-26.58-1.94-41.04,3.49l36.92,19.02,23.49-2.49c35.08,13.29,68.72,28.82,99.63,49.05,7.63,5,14.68,11.51,13.66,21.31-32.46,1.98-61.54-13.94-99.07-12.76-2.5.08-4.4,3.97-4.8,5.44.36,1,1.36,2.34.5,4.49l-138.95-39.27,2.57-9.51c.43-1.58.46-3.89-2.93-3.87.76-.89,1.09-2.85,1.39-4.01,1.75-1,2.49-2.54,2.96-4.25.41-1.51.31-3.18-1.49-3.52l5.74-20.61c15.97-7.83,31.62-8.36,50.26-3.58-32.81-17.89-64.04-36.29-95.25-55.83-.55-1,.25-3.35,1.77-2.84,48.9,10.83,95.27,24.68,142.56,40.15l42.21,11.41c3.57.96.44,8.41-2.17,10.11h0Z"/>
            <path class="st0" d="M1240.84,536.82l-4.5-1.36,8.58-33.03c14.17-37.73,31.99-72.72,51.04-108.07,11.5-21.34,20.93-47.31,6.18-46.11-14.74,1.2-35.04,38.85-44.02,60.02l-55.97,131.97c-2.65-6.34,2.43-13.23-2.12-18.3-1.32-1.47-3.85-2.6-6.14-2.65l45.18-110.59,66.47-140.19c7.52-15.87,21.45-27.74,36.89-32.9l23.32,55.51c7.28,17.57,5.32,31.71-3.7,47.92-11.55,20.74-20.47,42.5-35.87,61-18.02,21.64-34.94,43.67-47.46,68.93l-30.37,61.29c-2.23,4.49-5.25,4.72-7.49,6.55h-.02Z"/>
            <path class="st6" d="M1619.74,312.98l79.08,23.89c-1.87,1.89-4.06,2.78-5.42,4.96l42.35,17.39c16.08,6.61,31.46,13.06,44.73,24,16.69,13.76-8.17,29.67,8.56,56.23,2.3,3.65,4.56,9.78,2.75,13.58-2.47-.72-5.88-.63-7.79-1.85-7.74-4.88-16.71-7.87-26.72-10.67l-140.48-39.27c-.99-2.9-3.23-5.56-6.23-7.14.41-1.46,2.3-5.36,4.8-5.44,37.53-1.18,66.61,14.74,99.07,12.76,1.02-9.79-6.04-16.31-13.66-21.31-30.91-20.24-64.55-35.76-99.63-49.05l-23.49,2.49-36.92-19.02c14.47-5.43,27.14-3.44,41.04-3.49l37.96,1.93v.02Z"/>
            <path class="st6" d="M1383.79,237.24c30.07,27.93,63.72,51.45,96.57,76.31l-5.74,20.61c-1.72,1.02-2.53,2.56-3.06,4.3-.47,1.52-.31,3.24,1.59,3.49-.3,1.15-.61,3.11-1.39,4.01-3.04,3.56-1.77,8.56-2.93,12.82-17.73-6.69-35.54-10.35-54.83-12.23-.63-.72-3.16-2.14-2.38-3.31-13.64-34.22-27.22-69.45-32.31-106.44l4.5.46h0Z"/>
            <path class="st4" d="M1435.36,254.13c31.2,19.53,62.44,37.94,95.25,55.83-18.64-4.78-34.29-4.25-50.26,3.58-32.85-24.85-66.5-48.38-96.57-76.31,17.45,1.79,36.34,7.36,51.57,16.9Z"/>
            <path class="st4" d="M1791.79,453.03c-15.31,32.11-25.28,65.89-34.7,100.24-1.22,4.48-3.85,9.64-1.55,13.89l-.22,2.09c-1.07,2-3.46,3.47-3.44,6.34-4.77-3.65-2.02-8.7-.93-13.43,6.17-26.76,12.37-51.59,23.11-76.74.72-1.7.15-5.29-.4-6.39s-2.74-1.65-4.35-1.43c7.44-7.16,13.15-15.99,14.68-26.42,1.93,1.21,5.33,1.13,7.79,1.85h0Z"/>
            <path class="st9" d="M1698.84,699.64c-.16.74.22,2.56-.06,3.33-4.79.47-5.8-2.51-5.37-6.26.38-3.38,2.5-6.5,7.19-5.44l-1.76,8.38h0Z"/>
            <path class="st1" d="M1610.57,394.11c2.99,1.58,5.23,4.24,6.23,7.14l-1.51,4.65c-18.37-11.65-39.93-7.72-59.92,1.16-6.85,3.05-15.84,4.36-16.67,12.43-16.72,6.19-13.91,31.63-6.13,50.56.05.22-.36.9-1.11,1.07,4.16,21.04,10.44,42.3,20.23,61.47l-.2,1.51-.22,2.15c-2.5.22-4.79,1.81-5.42,3.69-2.37,7.2,6.3,7.07,16.33,11.52l-27,20.87c-22.3,17.24-46.61,31.54-73.92,38.91-2.64.71-6.13.74-7.32-.5s-1.47-6.31.43-8.07l48-44.46c-9.68-10.38-26.49-8.49-37.28-.44-24.44,18.25-41.15,18.47-33.85,29.62-8.03,7.52-17,19.9-13.4,31.7,6.58,21.61,51.17,4.66,73.61-6.93-5.95,8.13-9.07,14.77-7.63,22.23,3.68,19.16,49.64,12.21,75.31-4.16-3.61,9.66-3.16,17.79,1.8,24.86,17.81,25.48,69.96,9.35,102.31-7.89-42.24,54.52-127.51,26.62-187.47,4.1-42.82-16.08-106.4-22.76-138.43,12.97,30.11-6.2,57.06-8.33,85.3-2.1l92.01,20.28c27.28,6.01,53.36,10.86,80.83,12.01-18.24,7.68-33.71,18.82-45.98,34.62-13.49,18.29-33.44,26.57-56.09,28.13-35.91,2.47-71.21,1.09-107.78-.09-1.1-1.92-2.9,1.85-1.93,3.15-32.24-13.42-57.2-40.83-75.96-72.71-22.71,17.67-48.22,26.86-76.21,29.36l4.21-7.9c6.6-9.7,12.48-20.11,17.28-31.9l26.24-65.59c31.27,18.79,72.79,16.22,103.09-4.25,26.59-17.97,36.33-47,32.79-78.08-2.02-17.68-4.45-35.35,2.72-52.49,10.02-23.93,38.82-35.17,62.84-27.51,7.01,2.23,11.92,7.67,14.08,12.69,2.74,6.39,1.38,13.85-2.93,20.18-14.18,20.86-44.4,9.07-38.31,19.79,6.18,10.9,34.06,11.49,51.45,1.73,12.42-6.97,18.42-20.48,16.72-34.32-1.56-12.74-10.89-22.21-23.59-28.56-44.26-22.12-99.9-6.59-119.37,39.93-16.25,38.83,13.52,93.72-32.66,118.95-18.3,10-43.66,10.6-60.22-3.42l21.97-56.54c3.4,1,4.71,5.08,3.71,7.9-2.07,5.89,1.67,11.01,7.38,11.83,13.08,1.89,23.13-7.25,24.36-19.09,1.33-12.77-9.95-23.26-22.85-24.26l15.56-42.7,1.07-3.92,1.52.29c-1.33,3.61-2.88,8.49-.91,13.66,25.63-26.88,55.06-42.76,88.32-55.21,11.5-4.3,26.36-8.86,29.62-20.86l13.18-48.53c1.16-4.26-.11-9.26,2.93-12.82,3.39-.02,3.35,2.29,2.93,3.87l-2.57,9.51,138.95,39.27c.87-2.16-.14-3.48-.5-4.49v-.02ZM1540.38,528.55c-1.61-11.15-15.82-12.97-24.38-11.13-9.04,1.95-16.98,11.11-13.04,21.69,3.27,8.78,14.86,9.89,22.35,7.49,6.95-2.23,16.55-7.72,15.06-18.05h0Z"/>
            <path class="st2" d="M1585.82,568.92c-4.08-.06-7.79,2.36-11.21,5.68l-49.72,43.45c-1.94,1.69-2.27,6.72-1.75,8.48,2.53,8.59,27.59-3.7,42.94-11.86l42.3-22.49c17.11-5.56,37.6-4.83,53,5.51,8.34,14.28-2.24,27.11-14.9,33.03-17.4,3.31-34.32,7.07-52.99,1.26-3.34,3.52-3.73,7.7-2.47,11.32,1.13,3.25,4.82,5.34,9.19,7.12,17.96,3.26,37.54-2.18,51.74-12.46,4.9.03,10.22-.58,16.29-2.08,3.18-.33,6.14.2,8.21,1.9,2.24,1.83,3.38,5.78,1.53,9.25l-11.19,18.09c-19.36,19.39-44.26,26.48-71.34,29.36-27.48-1.14-53.56-6-80.83-12.01l-92.01-20.28c-28.24-6.22-55.19-4.09-85.3,2.1,32.03-35.72,95.62-29.05,138.43-12.97,59.96,22.53,145.24,50.43,187.47-4.1-32.35,17.24-84.49,33.38-102.31,7.89-4.95-7.07-5.4-15.2-1.8-24.86-25.67,16.37-71.63,23.32-75.31,4.16-1.44-7.45,1.68-14.09,7.63-22.23-22.44,11.59-67.03,28.53-73.61,6.93-3.59-11.8,5.38-24.17,13.4-31.7-7.29-11.14,9.43-11.36,33.85-29.62,10.78-8.06,27.61-9.94,37.28.44l-48,44.46c-1.9,1.76-1.62,6.83-.43,8.07s4.67,1.21,7.32.5c27.31-7.36,51.63-21.67,73.92-38.91l27-20.87c-10.02-4.45-18.7-4.31-16.33-11.52.62-1.89,2.91-3.47,5.42-3.69.79-.07,1.85-.93,2.75-1.28,7.7,2.71,19.44,8.28,27.78,2.89,15.28-9.87,31.19-21.28,49.29-14.37-3.46,10.79-12.47,15.34-19.01,22.94,10.31,5.12,21.04,3.66,32.13,6.27,2.31.54.32,7.86-1.7,9.35-1.86,1.39-4.84,4.08-8.76,3.41l-30.88-5.29c-8.1-1.39-15.12,1.62-17.01,8.74h0ZM1626.2,607.55c-9.67-1.21-18.33,6.83-24.77,14.42,11.58,1.26,20.62-1.46,29.87-5.7,4.18-1.92,12.03-3.51,11.38-10.16-.33-3.38-5.75-4.91-8.6-3.51-3.03.24-6.1,2.01-7.88,4.96h0Z"/>
            <path class="st6" d="M1699.76,668.78c-1.42,8.06-4.39,15.91-9.29,23.24l-19.63,35.28c-17.82-1.12-37.32-.37-51.07,14.64,9.82,6.78,19.69,12.47,29.9,15.66-24.32,18.17-54.15,26.48-85.62,28.46-40.4,2.53-80.64,6.93-120.88-1l-59.51-24.79c-.97-1.32.84-5.08,1.93-3.15,36.56,1.19,71.87,2.56,107.78.09,22.64-1.56,42.59-9.85,56.09-28.13,12.28-15.79,27.76-26.93,45.98-34.62,27.08-2.87,51.97-9.97,71.34-29.36,12.18,2.23,23.61-2.49,32.99,3.68h-.02Z"/>
            <path class="st8" d="M1783.99,451.18c-1.53,10.42-7.24,19.25-14.68,26.42l-6.83,2.76c-2.23-.77-4.54-.95-6.35-.18-36.96-1.39-71.2-16.32-101.56-36.74-10.2-7.99-19.66-18.72-31.71-22.03,1.6-5.55-2.76-12.46-7.59-15.52l1.51-4.65,140.48,39.27c10.01,2.8,18.98,5.79,26.72,10.67h0Z"/>
            <path class="st1" d="M1585.82,568.92l22.55,23.26-42.3,22.49c-15.35,8.16-40.41,20.45-42.94,11.86-.51-1.75-.18-6.79,1.75-8.48l49.72-43.45c3.42-3.31,7.13-5.73,11.21-5.68h0Z"/>
            <path class="st1" d="M1646.47,630.72c1.06,3.22,2.72,5.24,5.45,7.23-14.2,10.28-33.78,15.73-51.74,12.46-4.35-1.78-8.04-3.86-9.19-7.12-1.26-3.62-.87-7.8,2.47-11.32,18.68,5.81,35.6,2.06,52.99-1.26h0Z"/>
            <path class="st4" d="M1654.58,443.44c-10.23-1.38-15.95-10.41-25.52-17.1-3.94,10.3-24.11-3.77-33.57,15.62l-48.65-12.81c-4.99-1.32-9.84-4.39-13.85-.48-3.46,3.38-.44,9.71-.18,14.17.57,9.63-2.04,18.44-.26,27.19-7.77-18.93-10.59-44.37,6.13-50.56,30.29,21.97,49.97,14.57,84.17,1.93,12.06,3.32,21.53,14.05,31.71,22.03h.02Z"/>
            <path class="st4" d="M1551.67,532.57c-9.79-19.16-16.09-40.43-20.23-61.47,13.02,11.89,8.96,28.61,15.86,42.36,3.3,6.59,5.36,11.91,4.37,19.11Z"/>
            <path class="st4" d="M1762.48,480.36c-.97.39-1.21,3.18-2.25,3.51-1.58.49-4.15-1.38-4.08-3.69,1.8-.77,4.12-.59,6.35.18h-.01Z"/>
            <path class="st4" d="M1551.24,536.24l.22-2.15,2.53.87c-.9.35-1.97,1.2-2.75,1.28Z"/>
            <path class="st2" d="M1279.23,611.53c-10.35-6.22-19.22-15.84-22.68-26.81-5.94-18.8-.65-36.94,13.05-52.12,10.22-11.31,28.39-18.29,46.34-16.91l4.49.34c12.9.99,24.18,11.49,22.85,24.26-1.24,11.84-11.29,20.97-24.36,19.09-5.7-.82-9.45-5.95-7.38-11.83,1-2.82-.32-6.9-3.71-7.9-14.6-4.3-27.51,9.31-31,23.98-3.13,13.08-1.24,23.84,9.03,32.55,16.56,14.04,41.92,13.43,60.22,3.42,46.18-25.23,16.41-80.13,32.66-118.95,19.48-46.52,75.1-62.04,119.37-39.93,12.7,6.35,22.02,15.81,23.59,28.56,1.69,13.83-4.3,27.35-16.72,34.32-17.4,9.76-45.27,9.18-51.45-1.73-6.08-10.73,24.12,1.06,38.31-19.79,4.31-6.33,5.66-13.79,2.93-20.18-2.14-5.02-7.06-10.46-14.08-12.69-24.02-7.65-52.83,3.58-62.84,27.51-7.17,17.14-4.75,34.81-2.72,52.49,3.55,31.06-6.19,60.1-32.79,78.08-30.29,20.47-71.81,23.02-103.09,4.25h-.01Z"/>
            <path class="st8" d="M1236.34,535.46c-1.7,6.56-10.89,8.08-16,13.04l-22.29,4.93c.45-4.48,2.39-9.16,4.09-13.2l55.97-131.97c8.98-21.18,28.76-58.78,44.02-60.02s5.32,24.76-6.18,46.11c-19.04,35.35-36.85,70.35-51.04,108.07l-8.58,33.03h.02Z"/>
            <path class="st4" d="M1413.99,346.53c-52.56,36.1-55.4,68.99-75.38,123.17l-1.52-.29c-4.23-4.76,1.87-9.64,2.83-14.01,4.46-20.32,12.67-37.58,19.78-56.6,9.36-25.03,30.19-39.57,51.92-55.59-.77,1.16,1.77,2.58,2.38,3.31h0Z"/>
            <polygon class="st4" points="1320.44 516.04 1315.94 515.7 1336 473.34 1320.44 516.04"/>
            <path class="st4" d="M1240.84,536.82c-6.16,5.02-12.21,11.94-20.5,11.68,5.11-4.96,14.29-6.48,16-13.04l4.5,1.36h0Z"/>
            <path class="st7" d="M1670.84,727.28c2.06,13.91-6.34,30.66-21.17,30.3-10.21-3.2-20.08-8.89-29.9-15.66,13.74-15.02,33.25-15.76,51.07-14.64h0Z"/>
            <path class="st1" d="M1473.13,341.93c-1.9-.24-2.07-1.95-1.59-3.49.54-1.73,1.34-3.28,3.06-4.3,1.8.35,1.9,2.02,1.49,3.52-.47,1.71-1.22,3.25-2.96,4.25h0Z"/>
            <path class="st7" d="M1468.82,358.77l-13.18,48.53c-3.27,12.01-18.12,16.56-29.62,20.86-33.26,12.45-62.69,28.33-88.32,55.21-1.97-5.17-.42-10.07.91-13.66,19.99-54.19,22.82-87.07,75.38-123.17,19.29,1.89,37.1,5.54,54.83,12.23h0Z"/>
            <path class="st8" d="M1755.53,567.17c-2.29-4.25.33-9.41,1.55-13.89,2.09,4.23-.63,9.36-1.55,13.89Z"/>
            <path class="st7" d="M1615.27,405.9c4.83,3.06,9.19,9.97,7.59,15.52-34.2,12.64-53.87,20.03-84.17-1.93.82-8.06,9.82-9.38,16.67-12.43,19.98-8.88,41.54-12.82,59.92-1.16h0Z"/>
            <path class="st4" d="M1307.83,539.65l-21.97,56.54c-10.27-8.71-12.16-19.47-9.03-32.55,3.5-14.67,16.4-28.27,31-23.98Z"/>
            <path class="st2" d="M1540.38,528.55c1.49,10.33-8.11,15.82-15.06,18.05-7.49,2.4-19.09,1.29-22.35-7.49-3.95-10.59,4-19.74,13.04-21.69,8.57-1.84,22.78-.02,24.38,11.13h0Z"/>
            <path class="st1" d="M1626.2,607.55c2.36,2.41,3.95,5.1,5.1,8.72-9.25,4.24-18.29,6.97-29.87,5.7,6.44-7.59,15.1-15.63,24.77-14.42Z"/>
            <path class="st4" d="M1631.29,616.26c-1.15-3.61-2.74-6.31-5.1-8.72,1.78-2.94,4.84-4.72,7.88-4.96,2.85-1.4,8.28.12,8.6,3.51.64,6.65-7.2,8.24-11.38,10.16h0Z"/>
          </g>
        </g>
      </g>
    </g>
  </g>
</svg>